HIERARCHY
ROOT RootJoint
{
    OFFSET   0.000000   0.000000   0.000000
    CHANNELS 6 Xposition Yposition Zposition Xrotation Yrotation Zrotation
    JOINT pelvis_lowerback
    {
        OFFSET   0.000000   0.093605   0.000000
        CHANNELS 3 Xrotation Yrotation Zrotation
        JOINT lowerback_torso
        {
            OFFSET   0.000000   0.100000   0.000000
            CHANNELS 3 Xrotation Yrotation Zrotation
            JOINT torso_head
            {
                OFFSET   0.000000   0.282350   0.000000
                CHANNELS 3 Xrotation Yrotation Zrotation
                End Site
                {
                    OFFSET   0.000000   0.192650   0.000000
                }
            }
            JOINT rTorso_Clavicle
            {
                OFFSET  -0.001000   0.157500   0.000000
                CHANNELS 3 Xrotation Yrotation Zrotation
                JOINT rShoulder
                {
                    OFFSET  -0.117647   0.000000   0.000000
                    CHANNELS 3 Xrotation Yrotation Zrotation
                    JOINT rElbow
                    {
                        OFFSET  -0.245000   0.000000   0.000000
                        CHANNELS 3 Xrotation Yrotation Zrotation
                        JOINT rWrist
                        {
                            OFFSET  -0.240000   0.000000   0.000000
                            CHANNELS 3 Xrotation Yrotation Zrotation
                            End Site
                            {
                                OFFSET  -0.116353  -0.002500   0.000000
                            }
                        }
                    }
                }
            }
            JOINT lTorso_Clavicle
            {
                OFFSET   0.001000   0.157500   0.000000
                CHANNELS 3 Xrotation Yrotation Zrotation
                JOINT lShoulder
                {
                    OFFSET   0.117647   0.000000   0.000000
                    CHANNELS 3 Xrotation Yrotation Zrotation
                    JOINT lElbow
                    {
                        OFFSET   0.245000   0.000000   0.000000
                        CHANNELS 3 Xrotation Yrotation Zrotation
                        JOINT lWrist
                        {
                            OFFSET   0.240000   0.000000   0.000000
                            CHANNELS 3 Xrotation Yrotation Zrotation
                            End Site
                            {
                                OFFSET   0.116353  -0.002500   0.000000
                            }
                        }
                    }
                }
            }
        }
    }
    JOINT rHip
    {
        OFFSET  -0.100000  -0.051395   0.000000
        CHANNELS 3 Xrotation Yrotation Zrotation
        JOINT rKnee
        {
            OFFSET   0.000000  -0.410000   0.000000
            CHANNELS 3 Xrotation Yrotation Zrotation
            JOINT rAnkle
            {
                OFFSET   0.000000  -0.390000   0.000000
                CHANNELS 3 Xrotation Yrotation Zrotation
                JOINT rToeJoint
                {
                    OFFSET   0.000000  -0.050000   0.130000
                    CHANNELS 3 Xrotation Yrotation Zrotation
                    End Site
                    {
                        OFFSET  -0.010000   0.002000   0.060000
                    }
                }
            }
        }
    }
    JOINT lHip
    {
        OFFSET   0.100000  -0.051395   0.000000
        CHANNELS 3 Xrotation Yrotation Zrotation
        JOINT lKnee
        {
            OFFSET   0.000000  -0.410000   0.000000
            CHANNELS 3 Xrotation Yrotation Zrotation
            JOINT lAnkle
            {
                OFFSET   0.000000  -0.390000   0.000000
                CHANNELS 3 Xrotation Yrotation Zrotation
                JOINT lToeJoint
                {
                    OFFSET   0.000000  -0.050000   0.130000
                    CHANNELS 3 Xrotation Yrotation Zrotation
                    End Site
                    {
                        OFFSET   0.010000   0.002000   0.060000
                    }
                }
            }
        }
    }
}
MOTION
Frames: 12
Frame Time:   0.008333
 -2.354328   0.837511   4.022509   6.240327   5.406604   2.027912  23.708979  -0.673616  -1.772091  -5.990841  -3.206669   2.008042  -9.279721  -0.823525  -0.694890 -13.096586  14.471317  -0.295016 -15.449170   7.613779  23.403913  -0.192066  50.451954   0.095430   0.556734   1.415333  -5.443896 -12.745227 -18.801202   5.219311 -27.402174 -15.755182 -18.121852  -0.226456 -49.742905  -0.106736  -3.876685  -4.837707   5.162652 -33.745291  -4.588263  -8.217623  63.472731  -0.003700   0.006743 -20.400476 -10.145563   1.754189 -16.670488   0.009878   0.017805 -37.905879   0.943042  -2.400175  70.695416   0.011583   0.013696   1.089487   2.930780  -1.033389 -46.777144  -0.005717   0.002023
 -2.353687   0.852129   4.031097   6.038182   5.378854   1.607991  22.355678  -0.421594  -1.170980  -5.391630  -3.239638   1.701354  -8.053841  -1.148443  -0.728975 -12.585415  14.474144  -1.984460 -15.352657   7.639900  23.480708  -0.160041  50.856421   0.076355   0.537949   1.935863  -5.746955 -12.206224 -18.189865   6.723931 -28.125258 -15.930849 -17.643066  -0.207000 -50.666274  -0.092370  -3.912461  -5.170141   5.781738 -31.908693  -4.920725  -7.728014  60.842728  -0.005760   0.004554 -16.766989 -10.150941   2.728121 -17.043020   0.008988   0.014881 -35.986313   0.707961  -1.913620  67.908965   0.008150   0.007476   3.772314   2.728527  -1.530070 -46.421810  -0.003598   0.002635
 -2.353266   0.867493   4.040437   5.808514   5.281830   1.099885  20.905755  -0.184586  -0.547174  -4.782530  -3.254732   1.458921  -6.847107  -1.460747  -0.741066 -12.014701  14.377642  -3.588051 -15.178453   7.601960  23.578453  -0.133285  51.190008   0.061304   0.516912   2.216023  -5.629371 -11.659535 -17.480633   8.118031 -28.736390 -16.031954 -17.208210  -0.188808 -51.518087  -0.080518  -3.940485  -5.453583   6.133347 -30.087761  -5.285251  -7.095883  58.228413  -0.005485   0.003211 -12.977692  -9.958798   3.727212 -15.493873   0.000823   0.010577 -33.836768   0.468547  -1.297746  64.818533   0.006690   0.002262   6.545090   2.543700  -1.995555 -46.137518  -0.002237   0.002843
 -2.353041   0.883231   4.050298   5.590887   5.150370   0.570927  19.414930   0.013336   0.050410  -4.261360  -3.279772   1.250386  -5.717760  -1.753011  -0.740977 -11.454443  14.202288  -5.081668 -14.983417   7.518254  23.672446  -0.111648  51.482698   0.049816   0.485706   2.355525  -5.385918 -11.158243 -16.742264   9.408737 -29.285910 -16.089576 -16.792286  -0.172898 -52.299224  -0.071753  -3.972968  -5.650286   6.389665 -28.376935  -5.655028  -6.366955  55.793248  -0.003179   0.002007  -9.181375  -9.631049   4.713821 -13.249756  -0.010491   0.008076 -31.570651   0.221733  -0.650338  61.483755   0.007518  -0.000849   9.492732   2.370710  -2.417939 -45.910070  -0.001395   0.002699
 -2.352946   0.899070   4.060544   5.408527   4.990278   0.024434  17.890480   0.171303   0.631547  -3.849645  -3.318658   1.066559  -4.668054  -2.025629  -0.734679 -10.927345  13.977416  -6.485589 -14.787321   7.409156  23.749064  -0.094291  51.744045   0.041128   0.448567   2.409084  -5.125166 -10.713349 -16.006326  10.613429 -29.793069 -16.126185 -16.389001  -0.159297 -53.019962  -0.065530  -4.008967  -5.783041   6.626925 -26.812025  -6.006699  -5.582669  53.549706  -0.000278   0.001358  -5.643498  -9.265531   5.613023 -11.164718  -0.019032   0.006682 -29.248247  -0.028805   0.013552  57.947897   0.010067  -0.001523  12.627651   2.216283  -2.794495 -45.728102  -0.000899   0.002366
 -2.352948   0.914773   4.071100   5.261945   4.803044  -0.543458  16.343692   0.289741   1.202192  -3.547238  -3.371437   0.908017  -3.693417  -2.279832  -0.723178 -10.443326  13.724265  -7.816047 -14.600502   7.288596  23.801871  -0.080416  51.980798   0.034589   0.408814   2.410050  -4.888040 -10.325960 -15.291972  11.748205 -30.268340 -16.156607 -15.995211  -0.147769 -53.688814  -0.061262  -4.046203  -5.878975   6.870753 -25.389480  -6.333220  -4.766173  51.481821   0.002461   0.001378  -2.351082  -8.874238   6.429083  -9.261129  -0.024814   0.005902 -26.889376  -0.277720   0.696272  54.242990   0.013679   0.000164  15.937760   2.082482  -3.127657 -45.582521  -0.000623   0.001962
 -2.353029   0.930125   4.081909   5.149633   4.590213  -1.135708  14.782919   0.368957   1.764855  -3.348887  -3.437898   0.775506  -2.788794  -2.516869  -0.706929 -10.005846  13.456922  -9.084366 -14.428333   7.165124  23.828446  -0.069334  52.197735   0.029679   0.368435   2.380386  -4.691871  -9.993452 -14.611104  12.825828 -30.718261 -16.190417 -15.609327  -0.138008 -54.312399  -0.058456  -4.082810  -5.958807   7.129863 -24.101024  -6.632983  -3.935094  49.572525   0.004662   0.002013   0.712562  -8.466322   7.167804  -7.524205  -0.028265   0.005359 -24.508368  -0.519473   1.401104  50.398617   0.017752   0.004000  19.408567   1.970977  -3.420642 -45.466051  -0.000483   0.001555
 -2.353209   0.945324   4.092998   5.218687   4.504433  -2.705096  12.924517   0.620672   3.512154  -3.266971  -3.587539   1.033713  -1.750972  -2.705246  -1.346784  -8.714395  13.362845 -10.679467 -13.809926   7.353598  23.639297  -0.049337  51.550000   0.026319   0.493177   2.878183  -5.407304  -9.341493 -13.778687  13.461742 -30.073284 -16.051291 -15.282166  -0.115355 -54.682646  -0.045271  -3.894667  -6.592196   8.073843 -22.973216  -7.223826  -2.028423  48.290193   0.005846  -0.000939   2.997574  -8.635500   7.740622  -5.965675  -0.028302   0.001613 -22.515788  -0.777054   3.177003  46.888137   0.014942  -0.006522  22.969278   1.825218  -3.989408 -45.372875  -0.000232   0.001778
 -2.353143   0.960466   4.104027   5.247455   4.449473  -4.324051  11.139760   0.817938   5.362652  -3.156841  -3.708026   1.452747  -0.828636  -2.893676  -1.917257  -7.427889  13.185141 -12.082875 -13.150714   7.463749  23.520659  -0.035472  50.880719   0.023123   0.614018   3.047997  -5.844273  -8.598221 -12.899862  13.872976 -29.351521 -15.808442 -15.099436  -0.094761 -54.987767  -0.033867  -3.713357  -7.037071   8.550365 -21.890621  -7.784631  -0.073308  47.323466   0.006289  -0.002712   5.130027  -8.773538   8.281430  -4.612014  -0.027056  -0.000654 -20.544373  -0.959397   4.988199  43.308744   0.013144  -0.014859  26.599617   1.752121  -4.455926 -44.416301   0.000660   0.006833
 -2.352802   0.975339   4.114758   5.243194   4.400198  -5.874873   9.469859   0.953969   7.195072  -3.012941  -3.808532   1.936097   0.013173  -3.077595  -2.420750  -6.192556  12.936322 -13.310045 -12.491755   7.516172  23.458785  -0.026313  50.232308   0.020197   0.714336   3.053661  -6.126270  -7.854854 -12.017935  14.154300 -28.628333 -15.515500 -14.984562  -0.077207 -55.247648  -0.024639  -3.559508  -7.314104   8.781846 -20.869339  -8.282231   1.798348  46.512417   0.006377  -0.003579   7.124604  -8.883137   8.790395  -3.379626  -0.025391  -0.002256 -18.657673  -1.077330   6.730170  39.852471   0.013277  -0.019437  30.310563   1.612724  -4.970519 -41.784471   0.004886   0.018907
 -2.352193   0.989751   4.125059   5.208424   4.347646  -7.347346   7.932769   1.037761   8.989197  -2.837102  -3.892717   2.453590   0.792107  -3.255747  -2.874112  -5.020127  12.641925 -14.396029 -11.847480   7.529849  23.434039  -0.020528  49.610714   0.017747   0.798848   2.962128  -6.314502  -7.142204 -11.154176  14.359264 -27.929632 -15.201172 -14.903549  -0.062592 -55.473947  -0.017329  -3.427605  -7.476654   8.902925 -19.913509  -8.720367   3.571889  45.794347   0.006275  -0.003867   8.988555  -8.969174   9.268097  -2.254125  -0.023600  -0.003392 -16.897637  -1.125385   8.339381  36.512356   0.013017  -0.020380  33.843400   1.429713  -5.426447 -37.606995   0.014092   0.030626
 -2.351326   1.003624   4.134901   5.142358   4.281609  -8.740489   6.530551   1.081476  10.732405  -2.630995  -3.961101   2.991936   1.518037  -3.427497  -3.286392  -3.913200  12.321435 -15.359753 -11.225010   7.518328  23.437719  -0.017118  49.018670   0.015772   0.871669   2.807671  -6.436684  -6.469793 -10.319986  14.512308 -27.265101 -14.881354 -14.842910  -0.050561 -55.675297  -0.011607  -3.310908  -7.568678   8.972549 -19.019433  -9.104773   5.245488  45.139636   0.006082  -0.003760  10.729570  -9.035476   9.715601  -1.224959  -0.021848  -0.004214 -15.270309  -1.101654   9.774110  33.386811   0.010923  -0.018301  37.170087   1.182071  -5.858786 -32.807937   0.029329   0.034373
